<svg width="64" height="64" viewBox="0 0 64 64" fill="none" xmlns="http://www.w3.org/2000/svg">
  <defs>
    <linearGradient id="shell" x1="8" y1="7" x2="58" y2="58" gradientUnits="userSpaceOnUse">
      <stop stop-color="#0F172A"/>
      <stop offset="0.48" stop-color="#07111F"/>
      <stop offset="1" stop-color="#050816"/>
    </linearGradient>
    <radialGradient id="radar" cx="0" cy="0" r="1" gradientTransform="matrix(23 0 0 23 30 31)" gradientUnits="userSpaceOnUse">
      <stop stop-color="#164E63" stop-opacity="0.78"/>
      <stop offset="0.64" stop-color="#0E7490" stop-opacity="0.2"/>
      <stop offset="1" stop-color="#020617" stop-opacity="0"/>
    </radialGradient>
    <linearGradient id="sweep" x1="30" y1="31" x2="54" y2="13" gradientUnits="userSpaceOnUse">
      <stop stop-color="#67E8F9"/>
      <stop offset="0.56" stop-color="#22D3EE"/>
      <stop offset="1" stop-color="#2DD4BF"/>
    </linearGradient>
    <linearGradient id="sweepFade" x1="30" y1="31" x2="55" y2="17" gradientUnits="userSpaceOnUse">
      <stop stop-color="#67E8F9" stop-opacity="0.5"/>
      <stop offset="0.72" stop-color="#22D3EE" stop-opacity="0.2"/>
      <stop offset="1" stop-color="#2DD4BF" stop-opacity="0"/>
    </linearGradient>
    <linearGradient id="home" x1="18" y1="43" x2="43" y2="22" gradientUnits="userSpaceOnUse">
      <stop stop-color="#CFFAFE"/>
      <stop offset="1" stop-color="#67E8F9"/>
    </linearGradient>
    <linearGradient id="ai" x1="49" y1="43" x2="59" y2="31" gradientUnits="userSpaceOnUse">
      <stop stop-color="#FDE68A"/>
      <stop offset="1" stop-color="#FBBF24"/>
    </linearGradient>
    <filter id="glow" x="-20%" y="-20%" width="140%" height="140%">
      <feGaussianBlur stdDeviation="2.1" result="blur"/>
      <feColorMatrix in="blur" type="matrix" values="0 0 0 0 0.133 0 0 0 0 0.827 0 0 0 0 0.933 0 0 0 0.75 0"/>
      <feBlend in="SourceGraphic" mode="screen"/>
    </filter>
  </defs>
  <rect width="64" height="64" rx="16" fill="url(#shell)"/>
  <rect x="1" y="1" width="62" height="62" rx="15" stroke="#67E8F9" stroke-opacity="0.22"/>
  <circle cx="30" cy="31" r="23" fill="url(#radar)"/>
  <circle cx="30" cy="31" r="21.5" stroke="#67E8F9" stroke-opacity="0.24" stroke-width="1.8"/>
  <circle cx="30" cy="31" r="14.5" stroke="#67E8F9" stroke-opacity="0.2" stroke-width="1.4"/>
  <circle cx="30" cy="31" r="8" stroke="#67E8F9" stroke-opacity="0.18" stroke-width="1.2"/>
  <path d="M30 9v44M8 31h44" stroke="#67E8F9" stroke-opacity="0.12"/>
  <path d="M30 31 51 12a27 27 0 0 1 6 24Z" fill="url(#sweepFade)" filter="url(#glow)"/>
  <path d="M44 14a21.5 21.5 0 0 1 8 9" stroke="url(#sweep)" stroke-width="2.4" stroke-linecap="round" filter="url(#glow)"/>
  <path d="M18.5 33.2 31 23l12.5 10.2" stroke="url(#home)" stroke-width="3.5" stroke-linecap="round" stroke-linejoin="round"/>
  <path d="M23 33.5v12.5h16V33.5" fill="#07111F" fill-opacity="0.8" stroke="url(#home)" stroke-width="3.5" stroke-linecap="round" stroke-linejoin="round"/>
  <path d="M31 46v-8.3h7.1" stroke="url(#ai)" stroke-width="3.5" stroke-linecap="round" stroke-linejoin="round"/>
  <circle cx="30" cy="31" r="2.4" fill="#67E8F9" filter="url(#glow)"/>
  <path d="M48.5 42 54 36.5 59.5 42" stroke="url(#ai)" stroke-width="2" stroke-linecap="round" stroke-linejoin="round"/>
  <circle cx="48.5" cy="42" r="2.6" fill="#22D3EE"/>
  <circle cx="54" cy="36.5" r="2.8" fill="#FBBF24"/>
  <circle cx="59.5" cy="42" r="2.6" fill="#2DD4BF"/>
  <circle cx="54" cy="36.5" r="1.1" fill="#FFFBEB"/>
</svg>
