<svg width="64" height="64" viewBox="0 0 64 64" fill="none" xmlns="http://www.w3.org/2000/svg">
  <defs>
    <linearGradient id="shell" x1="8" y1="7" x2="58" y2="58" gradientUnits="userSpaceOnUse">
      <stop stop-color="#0F172A"/>
      <stop offset="0.48" stop-color="#07111F"/>
      <stop offset="1" stop-color="#050816"/>
    </linearGradient>
    <linearGradient id="sweep" x1="28" y1="38" x2="51" y2="17" gradientUnits="userSpaceOnUse">
      <stop stop-color="#67E8F9"/>
      <stop offset="0.56" stop-color="#22D3EE"/>
      <stop offset="1" stop-color="#2DD4BF"/>
    </linearGradient>
    <linearGradient id="home" x1="19" y1="42" x2="43" y2="22" gradientUnits="userSpaceOnUse">
      <stop stop-color="#CFFAFE"/>
      <stop offset="1" stop-color="#67E8F9"/>
    </linearGradient>
    <filter id="glow" x="-20%" y="-20%" width="140%" height="140%">
      <feGaussianBlur stdDeviation="2.3" result="blur"/>
      <feColorMatrix in="blur" type="matrix" values="0 0 0 0 0.133 0 0 0 0 0.827 0 0 0 0 0.933 0 0 0 0.75 0"/>
      <feBlend in="SourceGraphic" mode="screen"/>
    </filter>
  </defs>
  <rect width="64" height="64" rx="16" fill="url(#shell)"/>
  <rect x="1" y="1" width="62" height="62" rx="15" stroke="#67E8F9" stroke-opacity="0.22"/>
  <path d="M15 36a17 17 0 0 1 33.6-3.5" stroke="#67E8F9" stroke-opacity="0.2" stroke-width="2"/>
  <path d="M21.5 36a10.5 10.5 0 0 1 20.6-2.9" stroke="#67E8F9" stroke-opacity="0.23" stroke-width="1.7"/>
  <path d="M33 34c5.6-6.2 13.4-10.6 22.8-12.8" stroke="url(#sweep)" stroke-width="4.2" stroke-linecap="round" stroke-linejoin="round" filter="url(#glow)"/>
  <path d="M18.5 34 31 23.8 43.5 34" stroke="url(#home)" stroke-width="3.5" stroke-linecap="round" stroke-linejoin="round"/>
  <path d="M23 34v12h16V34" stroke="url(#home)" stroke-width="3.5" stroke-linecap="round" stroke-linejoin="round"/>
  <path d="M32.5 46v-8.3h7.1" stroke="#FBBF24" stroke-width="3.5" stroke-linecap="round" stroke-linejoin="round"/>
  <circle cx="55.5" cy="21" r="4.4" fill="#FBBF24"/>
  <circle cx="55.5" cy="21" r="1.9" fill="#FFFBEB"/>
</svg>
