<svg width="64" height="64" viewBox="0 0 64 64" fill="none" xmlns="http://www.w3.org/2000/svg">
  <defs>
    <linearGradient id="shell" x1="9" y1="8" x2="57" y2="58" gradientUnits="userSpaceOnUse">
      <stop stop-color="#0F172A"/>
      <stop offset="0.48" stop-color="#07111F"/>
      <stop offset="1" stop-color="#050816"/>
    </linearGradient>
    <linearGradient id="sweep" x1="16" y1="15" x2="48" y2="49" gradientUnits="userSpaceOnUse">
      <stop stop-color="#67E8F9"/>
      <stop offset="0.56" stop-color="#22D3EE"/>
      <stop offset="1" stop-color="#2DD4BF"/>
    </linearGradient>
    <linearGradient id="home" x1="20" y1="39" x2="45" y2="22" gradientUnits="userSpaceOnUse">
      <stop stop-color="#CFFAFE"/>
      <stop offset="1" stop-color="#67E8F9"/>
    </linearGradient>
    <filter id="glow" x="-20%" y="-20%" width="140%" height="140%">
      <feGaussianBlur stdDeviation="2.8" result="blur"/>
      <feColorMatrix in="blur" type="matrix" values="0 0 0 0 0.133 0 0 0 0 0.827 0 0 0 0 0.933 0 0 0 0.8 0"/>
      <feBlend in="SourceGraphic" mode="screen"/>
    </filter>
  </defs>
  <rect width="64" height="64" rx="14" fill="url(#shell)"/>
  <rect x="1" y="1" width="62" height="62" rx="13" stroke="#67E8F9" stroke-opacity="0.2"/>
  <path d="M14 35a18 18 0 1 1 35.8 2.7" stroke="#67E8F9" stroke-opacity="0.28" stroke-width="2"/>
  <path d="M20 35a12 12 0 1 1 23.5 3.4" stroke="#67E8F9" stroke-opacity="0.2" stroke-width="1.6"/>
  <path d="M32 34 50 16c4.7 6.7 4.1 16-1.6 22.2C42.5 44.7 32.7 46 25.3 41.4" stroke="url(#sweep)" stroke-width="4" stroke-linecap="round" stroke-linejoin="round" filter="url(#glow)"/>
  <path d="M19.5 33.2 32 23l12.5 10.2" stroke="url(#home)" stroke-width="3.5" stroke-linecap="round" stroke-linejoin="round"/>
  <path d="M24 33v12h16V33" stroke="url(#home)" stroke-width="3.5" stroke-linecap="round" stroke-linejoin="round"/>
  <path d="M33.5 45V34h6.7" stroke="#FBBF24" stroke-width="3.5" stroke-linecap="round" stroke-linejoin="round"/>
  <circle cx="48.6" cy="16.6" r="4.2" fill="#FBBF24"/>
  <circle cx="48.6" cy="16.6" r="2" fill="#FFFBEB"/>
</svg>
