<svg width="420" height="96" viewBox="0 0 420 96" fill="none" xmlns="http://www.w3.org/2000/svg">
  <defs>
    <linearGradient id="shell" x1="9" y1="8" x2="73" y2="72" gradientUnits="userSpaceOnUse">
      <stop stop-color="#0F172A"/>
      <stop offset="0.48" stop-color="#07111F"/>
      <stop offset="1" stop-color="#050816"/>
    </linearGradient>
    <linearGradient id="sweep" x1="20" y1="20" x2="61" y2="61" gradientUnits="userSpaceOnUse">
      <stop stop-color="#67E8F9"/>
      <stop offset="0.56" stop-color="#22D3EE"/>
      <stop offset="1" stop-color="#2DD4BF"/>
    </linearGradient>
    <linearGradient id="home" x1="25" y1="51" x2="56" y2="30" gradientUnits="userSpaceOnUse">
      <stop stop-color="#CFFAFE"/>
      <stop offset="1" stop-color="#67E8F9"/>
    </linearGradient>
    <filter id="glow" x="-20%" y="-20%" width="140%" height="140%">
      <feGaussianBlur stdDeviation="3" result="blur"/>
      <feColorMatrix in="blur" type="matrix" values="0 0 0 0 0.133 0 0 0 0 0.827 0 0 0 0 0.933 0 0 0 0.8 0"/>
      <feBlend in="SourceGraphic" mode="screen"/>
    </filter>
  </defs>
  <rect width="420" height="96" rx="20" fill="#050816"/>
  <rect x="1" y="1" width="418" height="94" rx="19" stroke="#67E8F9" stroke-opacity="0.14"/>
  <rect x="16" y="16" width="64" height="64" rx="14" fill="url(#shell)"/>
  <rect x="17" y="17" width="62" height="62" rx="13" stroke="#67E8F9" stroke-opacity="0.2"/>
  <path d="M30 51a18 18 0 1 1 35.8 2.7" stroke="#67E8F9" stroke-opacity="0.28" stroke-width="2"/>
  <path d="M36 51a12 12 0 1 1 23.5 3.4" stroke="#67E8F9" stroke-opacity="0.2" stroke-width="1.6"/>
  <path d="M48 50 66 32c4.7 6.7 4.1 16-1.6 22.2C58.5 60.7 48.7 62 41.3 57.4" stroke="url(#sweep)" stroke-width="4" stroke-linecap="round" stroke-linejoin="round" filter="url(#glow)"/>
  <path d="M35.5 49.2 48 39l12.5 10.2" stroke="url(#home)" stroke-width="3.5" stroke-linecap="round" stroke-linejoin="round"/>
  <path d="M40 49v12h16V49" stroke="url(#home)" stroke-width="3.5" stroke-linecap="round" stroke-linejoin="round"/>
  <path d="M49.5 61V50h6.7" stroke="#FBBF24" stroke-width="3.5" stroke-linecap="round" stroke-linejoin="round"/>
  <circle cx="64.6" cy="32.6" r="4.2" fill="#FBBF24"/>
  <circle cx="64.6" cy="32.6" r="2" fill="#FFFBEB"/>
  <text x="98" y="52" fill="#F8FAFC" font-family="Inter, Arial, sans-serif" font-size="32" font-weight="700">RentalRadar</text>
  <text x="310" y="52" fill="#67E8F9" font-family="Inter, Arial, sans-serif" font-size="24" font-weight="800">.AI</text>
  <text x="100" y="70" fill="#94A3B8" font-family="Inter, Arial, sans-serif" font-size="12" font-weight="600">LIVE MARKET PRICING INTELLIGENCE</text>
</svg>
