<svg width="520" height="96" viewBox="0 0 520 96" fill="none" xmlns="http://www.w3.org/2000/svg">
  <defs>
    <linearGradient id="shell" x1="24" y1="20" x2="108" y2="76" gradientUnits="userSpaceOnUse">
      <stop stop-color="#0F172A"/>
      <stop offset="0.48" stop-color="#07111F"/>
      <stop offset="1" stop-color="#050816"/>
    </linearGradient>
    <radialGradient id="radar" cx="0" cy="0" r="1" gradientTransform="matrix(28 0 0 28 58 49)" gradientUnits="userSpaceOnUse">
      <stop stop-color="#164E63" stop-opacity="0.78"/>
      <stop offset="0.64" stop-color="#0E7490" stop-opacity="0.2"/>
      <stop offset="1" stop-color="#020617" stop-opacity="0"/>
    </radialGradient>
    <linearGradient id="sweep" x1="58" y1="49" x2="90" y2="24" gradientUnits="userSpaceOnUse">
      <stop stop-color="#67E8F9"/>
      <stop offset="0.56" stop-color="#22D3EE"/>
      <stop offset="1" stop-color="#2DD4BF"/>
    </linearGradient>
    <linearGradient id="sweepFade" x1="58" y1="49" x2="92" y2="30" gradientUnits="userSpaceOnUse">
      <stop stop-color="#67E8F9" stop-opacity="0.5"/>
      <stop offset="0.72" stop-color="#22D3EE" stop-opacity="0.2"/>
      <stop offset="1" stop-color="#2DD4BF" stop-opacity="0"/>
    </linearGradient>
    <linearGradient id="home" x1="36" y1="66" x2="72" y2="35" gradientUnits="userSpaceOnUse">
      <stop stop-color="#CFFAFE"/>
      <stop offset="1" stop-color="#67E8F9"/>
    </linearGradient>
    <linearGradient id="ai" x1="91" y1="66" x2="114" y2="42" gradientUnits="userSpaceOnUse">
      <stop stop-color="#FDE68A"/>
      <stop offset="1" stop-color="#FBBF24"/>
    </linearGradient>
    <filter id="glow" x="-20%" y="-20%" width="140%" height="140%">
      <feGaussianBlur stdDeviation="2.6" result="blur"/>
      <feColorMatrix in="blur" type="matrix" values="0 0 0 0 0.133 0 0 0 0 0.827 0 0 0 0 0.933 0 0 0 0.75 0"/>
      <feBlend in="SourceGraphic" mode="screen"/>
    </filter>
  </defs>
  <rect width="520" height="96" rx="24" fill="#050816"/>
  <rect x="1" y="1" width="518" height="94" rx="23" stroke="#67E8F9" stroke-opacity="0.14"/>
  <rect x="16" y="20" width="116" height="56" rx="17" fill="url(#shell)"/>
  <rect x="17" y="21" width="114" height="54" rx="16" stroke="#67E8F9" stroke-opacity="0.22"/>
  <circle cx="58" cy="49" r="27" fill="url(#radar)"/>
  <circle cx="58" cy="49" r="25" stroke="#67E8F9" stroke-opacity="0.24" stroke-width="2"/>
  <circle cx="58" cy="49" r="17" stroke="#67E8F9" stroke-opacity="0.2" stroke-width="1.6"/>
  <circle cx="58" cy="49" r="9" stroke="#67E8F9" stroke-opacity="0.18" stroke-width="1.4"/>
  <path d="M58 24v50M33 49h50" stroke="#67E8F9" stroke-opacity="0.12" stroke-width="1.2"/>
  <path d="M58 49 89 25a33 33 0 0 1 7 30Z" fill="url(#sweepFade)" filter="url(#glow)"/>
  <path d="M77 27a26 26 0 0 1 10 11" stroke="url(#sweep)" stroke-width="2.8" stroke-linecap="round" filter="url(#glow)"/>
  <path d="M38 51 56 36.5 74 51" stroke="url(#home)" stroke-width="4.4" stroke-linecap="round" stroke-linejoin="round"/>
  <path d="M44 51.5v17h24v-17" fill="#07111F" fill-opacity="0.82" stroke="url(#home)" stroke-width="4.4" stroke-linecap="round" stroke-linejoin="round"/>
  <path d="M57 68.5V56.5h10.5" stroke="url(#ai)" stroke-width="4.4" stroke-linecap="round" stroke-linejoin="round"/>
  <circle cx="58" cy="49" r="3" fill="#67E8F9" filter="url(#glow)"/>
  <text x="154" y="57" fill="#F8FAFC" font-family="Inter, Arial, sans-serif" font-size="34" font-weight="750">RentalRadar</text>
  <text x="365" y="57" fill="#67E8F9" font-family="Inter, Arial, sans-serif" font-size="34" font-weight="750">.AI</text>
  <text x="156" y="75" fill="#94A3B8" font-family="Inter, Arial, sans-serif" font-size="12" font-weight="650" letter-spacing="2.4">VACATION RENTAL PRICING</text>
</svg>
